<svg id="visual" viewBox="0 0 1920 100" width="1920" height="100" xmlns="http://www.w3.org/2000/svg" xmlns:xlink="http://www.w3.org/1999/xlink" version="1.1"><path d="M0 56L32 53.7C64 51.3 128 46.7 192 43C256 39.3 320 36.7 384 37C448 37.3 512 40.7 576 40.7C640 40.7 704 37.3 768 39.2C832 41 896 48 960 48.5C1024 49 1088 43 1152 44.2C1216 45.3 1280 53.7 1344 53C1408 52.3 1472 42.7 1536 39.2C1600 35.7 1664 38.3 1728 43.5C1792 48.7 1856 56.3 1888 60.2L1920 64L1920 0L1888 0C1856 0 1792 0 1728 0C1664 0 1600 0 1536 0C1472 0 1408 0 1344 0C1280 0 1216 0 1152 0C1088 0 1024 0 960 0C896 0 832 0 768 0C704 0 640 0 576 0C512 0 448 0 384 0C320 0 256 0 192 0C128 0 64 0 32 0L0 0Z" fill="#FFB74D" stroke-linecap="round" stroke-linejoin="miter"></path></svg>